<svg width="80" height="80" viewBox="0 0 80 80" fill="none" xmlns="http://www.w3.org/2000/svg">
<g filter="url(#filter0_d_121_55686)">
<rect x="5" y="4" width="70" height="70" rx="35" fill="white"/>
</g>
<path d="M53.0999 28.75H37.4499C36.1999 28.75 35.1499 29.8 35.1499 31.05V31.4H28.2999C27.8499 31.4 27.4499 31.65 27.2499 32.05L24.7499 37.1C24.6499 37.25 24.6499 37.45 24.6499 37.65V45.45C24.6499 45.95 25.0499 46.35 25.5499 46.35H26.9999C27.2499 48.15 28.7999 49.5 30.6499 49.5C32.4999 49.5 34.0499 48.1 34.2999 46.35H36.0499H44.9999C45.2499 48.15 46.7999 49.5 48.6499 49.5C50.4999 49.5 52.0499 48.1 52.2999 46.35H54.1499C54.8499 46.35 55.3999 45.8 55.3999 45.1V31C55.3999 29.75 54.3499 28.75 53.0999 28.75ZM28.6499 33.1H35.1999V36.6H26.8999L28.6499 33.1ZM30.5999 47.7C29.4999 47.7 28.6499 46.8 28.6499 45.75C28.6499 44.7 29.5499 43.8 30.5999 43.8C31.6499 43.8 32.5499 44.7 32.5499 45.75C32.5499 46.8 31.6999 47.7 30.5999 47.7ZM30.5999 42.05C28.9999 42.05 27.5999 43.1 27.0999 44.55H26.3999V38.4H35.1999V44.55H34.1499C33.5999 43.1 32.2499 42.05 30.5999 42.05ZM48.6499 47.7C47.5499 47.7 46.6999 46.8 46.6999 45.75C46.6999 44.7 47.5999 43.8 48.6499 43.8C49.6999 43.8 50.5999 44.7 50.5999 45.75C50.5999 46.8 49.6999 47.7 48.6499 47.7ZM53.6499 44.55H52.1499C51.6499 43.1 50.2499 42.05 48.6499 42.05C47.0499 42.05 45.6499 43.1 45.1499 44.55H36.8999V31C36.8999 30.7 37.1499 30.45 37.4499 30.45H53.0999C53.3999 30.45 53.6499 30.7 53.6499 31V44.55Z" fill="#3056D3"/>
<defs>
<filter id="filter0_d_121_55686" x="0" y="0" width="80" height="80" filterUnits="userSpaceOnUse" color-interpolation-filters="sRGB">
<feFlood flood-opacity="0" result="BackgroundImageFix"/>
<feColorMatrix in="SourceAlpha" type="matrix" values="0 0 0 0 0 0 0 0 0 0 0 0 0 0 0 0 0 0 127 0" result="hardAlpha"/>
<feOffset dy="1"/>
<feGaussianBlur stdDeviation="2.5"/>
<feComposite in2="hardAlpha" operator="out"/>
<feColorMatrix type="matrix" values="0 0 0 0 0 0 0 0 0 0 0 0 0 0 0 0 0 0 0.14 0"/>
<feBlend mode="normal" in2="BackgroundImageFix" result="effect1_dropShadow_121_55686"/>
<feBlend mode="normal" in="SourceGraphic" in2="effect1_dropShadow_121_55686" result="shape"/>
</filter>
</defs>
</svg>
