<svg width="80" height="80" viewBox="0 0 80 80" fill="none" xmlns="http://www.w3.org/2000/svg">
<g filter="url(#filter0_d_121_55694)">
<rect x="5" y="4" width="70" height="70" rx="35" fill="white"/>
</g>
<path d="M51.1999 33.7502H50.6999V30.9502C50.6999 29.7502 50.1499 28.7002 49.1999 28.0002C48.2499 27.3002 47.0499 27.1502 45.9499 27.5502L28.0499 33.7502C26.1499 33.8502 24.6499 35.4002 24.6499 37.3502V47.0502C24.6499 49.0502 26.2499 50.6502 28.2499 50.6502H51.1999C53.1999 50.6502 54.7999 49.0502 54.7999 47.0502V37.3502C54.7999 35.3502 53.1499 33.7502 51.1999 33.7502ZM46.4999 29.2002C47.0499 29.0002 47.6999 29.1002 48.1999 29.4502C48.6999 29.8002 48.9999 30.3502 48.9999 30.9502V33.7502H33.3999L46.4999 29.2002ZM51.1999 48.9002H28.2499C27.2499 48.9002 26.3999 48.0502 26.3999 47.0502V37.3502C26.3999 36.3502 27.2499 35.5002 28.2499 35.5002H51.1999C52.1999 35.5002 53.0499 36.3502 53.0499 37.3502V38.7002H47.1999C45.2499 38.7002 43.6499 40.3002 43.6499 42.2502C43.6499 44.2002 45.2499 45.8002 47.1999 45.8002H53.0499V47.0002C53.0499 48.0502 52.1999 48.9002 51.1999 48.9002ZM53.0499 40.4502V44.1002H47.1999C46.1999 44.1002 45.3999 43.3002 45.3999 42.3002C45.3999 41.3002 46.1999 40.5002 47.1999 40.5002H53.0499V40.4502Z" fill="#3056D3"/>
<defs>
<filter id="filter0_d_121_55694" x="0" y="0" width="80" height="80" filterUnits="userSpaceOnUse" color-interpolation-filters="sRGB">
<feFlood flood-opacity="0" result="BackgroundImageFix"/>
<feColorMatrix in="SourceAlpha" type="matrix" values="0 0 0 0 0 0 0 0 0 0 0 0 0 0 0 0 0 0 127 0" result="hardAlpha"/>
<feOffset dy="1"/>
<feGaussianBlur stdDeviation="2.5"/>
<feComposite in2="hardAlpha" operator="out"/>
<feColorMatrix type="matrix" values="0 0 0 0 0 0 0 0 0 0 0 0 0 0 0 0 0 0 0.14 0"/>
<feBlend mode="normal" in2="BackgroundImageFix" result="effect1_dropShadow_121_55694"/>
<feBlend mode="normal" in="SourceGraphic" in2="effect1_dropShadow_121_55694" result="shape"/>
</filter>
</defs>
</svg>
