<svg width="80" height="80" viewBox="0 0 80 80" fill="none" xmlns="http://www.w3.org/2000/svg">
<g filter="url(#filter0_d_121_55702)">
<rect x="5" y="4" width="70" height="70" rx="35" fill="white"/>
</g>
<path d="M27.6999 37.2502C27.8499 37.2502 27.9999 37.2502 28.0999 37.2002L33.6499 35.2502C34.0999 35.1002 34.3499 34.6002 34.1999 34.1502C34.0499 33.7002 33.5499 33.4502 33.0999 33.6002L29.7499 34.8002C31.3999 30.2502 35.7499 27.1502 40.7999 27.1502C46.1499 27.1502 50.8499 30.7002 52.1499 35.8502C52.2499 36.3002 52.7499 36.6002 53.1999 36.5002C53.6499 36.4002 53.9499 35.9002 53.8499 35.4502C52.3499 29.5502 46.9499 25.4502 40.7999 25.4502C34.7999 25.4502 29.5999 29.3002 27.8999 34.9002L26.3499 30.5502C26.1999 30.1002 25.6999 29.8502 25.2499 30.0002C24.7999 30.1502 24.5499 30.6502 24.6999 31.1002L26.5999 36.5502C26.7499 36.9502 27.2499 37.2502 27.6999 37.2502Z" fill="#3056D3"/>
<path d="M55.2999 47.9503L53.2499 42.5503C53.1499 42.2503 52.8999 42.0003 52.5999 41.9003C52.2999 41.8003 51.9999 41.7503 51.6999 41.9003L46.1999 44.0003C45.7499 44.1503 45.4999 44.7003 45.6999 45.1503C45.8499 45.6003 46.3999 45.8503 46.8499 45.6503L50.2499 44.3503C48.3499 48.3003 44.2999 50.9003 39.6999 50.9003C34.6499 50.9003 30.1999 47.7503 28.6499 43.0503C28.4499 42.6003 27.9499 42.3503 27.4999 42.5003C27.0499 42.6503 26.7999 43.1503 26.9499 43.6003C28.7499 49.0003 33.8499 52.6503 39.6499 52.6503C45.1499 52.6503 50.0499 49.4003 52.0499 44.4503L53.6499 48.6003C53.7999 48.9503 54.0999 49.1503 54.4499 49.1503C54.5499 49.1503 54.6499 49.1503 54.7499 49.1003C55.2499 48.9003 55.4999 48.4003 55.2999 47.9503Z" fill="#3056D3"/>
<defs>
<filter id="filter0_d_121_55702" x="0" y="0" width="80" height="80" filterUnits="userSpaceOnUse" color-interpolation-filters="sRGB">
<feFlood flood-opacity="0" result="BackgroundImageFix"/>
<feColorMatrix in="SourceAlpha" type="matrix" values="0 0 0 0 0 0 0 0 0 0 0 0 0 0 0 0 0 0 127 0" result="hardAlpha"/>
<feOffset dy="1"/>
<feGaussianBlur stdDeviation="2.5"/>
<feComposite in2="hardAlpha" operator="out"/>
<feColorMatrix type="matrix" values="0 0 0 0 0 0 0 0 0 0 0 0 0 0 0 0 0 0 0.14 0"/>
<feBlend mode="normal" in2="BackgroundImageFix" result="effect1_dropShadow_121_55702"/>
<feBlend mode="normal" in="SourceGraphic" in2="effect1_dropShadow_121_55702" result="shape"/>
</filter>
</defs>
</svg>
