<svg width="26" height="30" viewBox="0 0 26 30" fill="none" xmlns="http://www.w3.org/2000/svg">
<path d="M21.7602 15.854C21.7454 13.3949 22.8887 11.5416 25.1974 10.1751C23.9061 8.37227 21.9526 7.38072 19.3775 7.18962C16.9393 7.00213 14.2717 8.57419 13.2949 8.57419C12.2626 8.57419 9.90213 7.25453 8.0448 7.25453C4.21174 7.31222 0.138184 10.2328 0.138184 16.1749C0.138184 17.9308 0.467472 19.7444 1.12605 21.6121C2.00662 24.0712 5.1811 30.0962 8.49248 29.9988C10.224 29.9592 11.4487 28.8018 13.7019 28.8018C15.8885 28.8018 17.0207 29.9988 18.952 29.9988C22.293 29.952 25.1641 24.475 26.0003 22.0088C21.5197 19.9499 21.7602 15.9801 21.7602 15.854ZM17.8716 4.85678C19.7475 2.68619 19.5773 0.710309 19.5218 0C17.8642 0.0937464 15.9477 1.09972 14.8563 2.33645C13.6538 3.66332 12.9471 5.30388 13.0988 7.15357C14.8896 7.28698 16.5249 6.38917 17.8716 4.85678Z" fill="white"/>
</svg>
