<svg width="26" height="26" viewBox="0 0 26 26" fill="none" xmlns="http://www.w3.org/2000/svg">
<path d="M24.0726 9.87928L5.04416 0.38688C3.93691 -0.185937 2.66562 -0.104106 1.64038 0.509627C0.615142 1.16428 0 2.26899 0 3.49646V22.4813C0 23.7087 0.615142 24.8135 1.68139 25.4681C2.25552 25.8363 2.87066 26 3.52681 26C4.05994 26 4.59306 25.8773 5.08517 25.6318L24.0726 16.0984C25.2618 15.4847 26 14.2982 26 12.9889C26 11.6796 25.2618 10.4521 24.0726 9.87928ZM15.2555 7.05611L11.5647 11.8023L3.4858 1.40977C3.81388 1.40977 4.10095 1.4916 4.38801 1.61435L15.2555 7.05611ZM1.43533 22.4813V3.49646C1.43533 2.92364 1.68139 2.35083 2.13249 1.98259L10.6625 12.9889L2.09148 23.9951C1.64038 23.6269 1.43533 23.0541 1.43533 22.4813ZM4.38801 24.3225C4.10095 24.4861 3.77287 24.527 3.44479 24.527L11.5237 14.1345L15.2145 18.9216L4.38801 24.3225ZM23.4574 14.8301L16.5678 18.267L12.4669 12.9889L16.5678 7.71076L23.4574 11.1477C24.1546 11.5159 24.6057 12.2115 24.6057 12.9889C24.6057 13.7663 24.1546 14.4618 23.4574 14.8301Z" fill="white"/>
</svg>
