<svg width="24" height="24" viewBox="0 0 24 24" fill="none" xmlns="http://www.w3.org/2000/svg">
<path d="M20.1818 22H15.7987C14.8247 22 14.013 21.188 14.013 20.2136V16.6407C14.013 16.2834 13.7208 15.9911 13.3636 15.9911H10.6688C10.3117 15.9911 10.0195 16.2834 10.0195 16.6407V20.1811C10.0195 21.1555 9.20779 21.9675 8.23377 21.9675H3.78571C2.81169 21.9675 2 21.1555 2 20.1811V8.84531C2 8.3581 2.25974 7.90337 2.68182 7.64352L11.2532 2.21924C11.7078 1.92692 12.3247 1.92692 12.7792 2.21924L21.3506 7.64352C21.7727 7.90337 22 8.3581 22 8.84531V20.1486C22 21.188 21.1883 22 20.1818 22ZM10.6364 14.8542H13.3312C14.3052 14.8542 15.1169 15.6663 15.1169 16.6407V20.1811C15.1169 20.5384 15.4091 20.8307 15.7662 20.8307H20.1818C20.539 20.8307 20.8312 20.5384 20.8312 20.1811V8.87779C20.8312 8.78035 20.7662 8.68291 20.7013 8.61795L12.1623 3.19367C12.0649 3.1287 11.9351 3.1287 11.8701 3.19367L3.2987 8.61795C3.2013 8.68291 3.16883 8.78035 3.16883 8.87779V20.2136C3.16883 20.5708 3.46104 20.8632 3.81818 20.8632H8.23377C8.59091 20.8632 8.88312 20.5708 8.88312 20.2136V16.6407C8.85065 15.6663 9.66234 14.8542 10.6364 14.8542Z" fill="#3056D3"/>
</svg>
