<svg width="42" height="42" viewBox="0 0 42 42" fill="none" xmlns="http://www.w3.org/2000/svg">
<circle cx="21" cy="21" r="20.75" fill="#F4F7FF" stroke="#E7E7E7" stroke-width="0.5"/>
<g clip-path="url(#clip0_121_55451)">
<path d="M29.8343 22.6846C29.7655 21.894 29.1124 21.344 28.3218 21.344H13.678C12.8874 21.344 12.2687 21.9284 12.1655 22.6846L11.4437 29.9034C11.4093 30.3159 11.5468 30.7627 11.8218 31.0721C12.0968 31.3815 12.5093 31.5534 12.9562 31.5534H29.078C29.4905 31.5534 29.903 31.3815 30.2124 31.0721C30.4874 30.7627 30.6249 30.3502 30.5905 29.9034L29.8343 22.6846ZM29.2843 30.2815C29.2499 30.3159 29.1812 30.3846 29.0437 30.3846H12.9562C12.853 30.3846 12.7499 30.3159 12.7155 30.2815C12.6812 30.2471 12.6124 30.1784 12.6468 30.0409L13.3687 22.7877C13.3687 22.6159 13.5062 22.5127 13.678 22.5127H28.3562C28.528 22.5127 28.6312 22.6159 28.6655 22.7877L29.3874 30.0409C29.353 30.144 29.3187 30.2471 29.2843 30.2815Z" fill="#212B36"/>
<path d="M21 24.0251C19.6594 24.0251 18.5938 25.0908 18.5938 26.4314C18.5938 27.772 19.6594 28.8376 21 28.8376C22.3406 28.8376 23.4062 27.772 23.4062 26.4314C23.4062 25.0908 22.3406 24.0251 21 24.0251ZM21 27.6345C20.3469 27.6345 19.7969 27.0845 19.7969 26.4314C19.7969 25.7783 20.3469 25.2283 21 25.2283C21.6531 25.2283 22.2031 25.7783 22.2031 26.4314C22.2031 27.0845 21.6531 27.6345 21 27.6345Z" fill="#212B36"/>
<path d="M12.2687 16.7377C12.3375 18.2502 13.6781 18.8689 14.3656 18.8689H16.7719C16.8063 18.8689 16.8062 18.8689 16.8062 18.8689C17.8375 18.8002 18.8687 18.1127 18.8687 16.7377V15.9127C20.0031 15.9127 22.6156 15.9127 23.75 15.9127V16.7377C23.75 18.1127 24.7812 18.8002 25.8125 18.8689H25.8469H28.2188C28.9062 18.8689 30.2469 18.2502 30.3156 16.7377C30.3156 16.6346 30.3156 16.2564 30.3156 15.9127C30.3156 15.6377 30.3156 15.3971 30.3156 15.3627C30.3156 15.3283 30.3156 15.2939 30.3156 15.2939C30.2125 14.3314 29.8687 13.5408 29.2844 12.9221L29.25 12.8877C28.3906 12.0971 27.3594 11.6502 26.5688 11.3752C24.2656 10.4814 21.3781 10.4814 21.2406 10.4814C19.2125 10.5158 17.9062 10.6877 15.9469 11.3752C15.1906 11.6158 14.1594 12.0627 13.3 12.8533L13.2656 12.8877C12.6812 13.5064 12.3375 14.2971 12.2344 15.2596C12.2344 15.2939 12.2344 15.3283 12.2344 15.3283C12.2344 15.3971 12.2344 15.6033 12.2344 15.8783C12.2688 16.1877 12.2687 16.6002 12.2687 16.7377ZM14.125 13.7127C14.8125 13.0939 15.6719 12.7158 16.3938 12.4408C18.1813 11.7877 19.35 11.6502 21.3094 11.6158C21.4469 11.6158 24.1281 11.6502 26.1906 12.4408C26.9125 12.7158 27.7719 13.0596 28.4594 13.7127C28.8375 14.1252 29.0781 14.6752 29.1469 15.3283C29.1469 15.4314 29.1469 15.6033 29.1469 15.8783C29.1469 16.2221 29.1469 16.6002 29.1469 16.7033C29.1125 17.4939 28.3562 17.6658 28.2531 17.6658H25.8813C25.5375 17.6314 24.9875 17.4939 24.9875 16.7377V15.3283C24.9875 15.0533 24.8156 14.8471 24.575 14.7439C24.3688 14.6752 18.3531 14.6752 18.1469 14.7439C17.9063 14.8127 17.7344 15.0533 17.7344 15.3283V16.7377C17.7344 17.4939 17.1844 17.6314 16.8406 17.6658H14.4688C14.3656 17.6658 13.6094 17.4939 13.575 16.7033C13.575 16.6002 13.575 16.2221 13.575 15.8783C13.575 15.6033 13.575 15.4658 13.575 15.3627C13.5062 14.6752 13.7469 14.1252 14.125 13.7127Z" fill="#212B36"/>
</g>
<defs>
<clipPath id="clip0_121_55451">
<rect width="22" height="22" fill="white" transform="translate(10 10.0002)"/>
</clipPath>
</defs>
</svg>
