<svg width="42" height="42" viewBox="0 0 42 42" fill="none" xmlns="http://www.w3.org/2000/svg">
<circle cx="21" cy="21.0002" r="20.75" fill="#F4F7FF" stroke="#E7E7E7" stroke-width="0.5"/>
<path d="M20.9998 22.5127C23.8186 22.5127 26.1217 20.2096 26.1217 17.3909C26.1217 14.5721 23.8186 12.2346 20.9998 12.2346C18.1811 12.2346 15.8779 14.5377 15.8779 17.3565C15.8779 20.1752 18.1811 22.5127 20.9998 22.5127ZM20.9998 13.4377C23.1654 13.4377 24.9186 15.1909 24.9186 17.3565C24.9186 19.5221 23.1654 21.2752 20.9998 21.2752C18.8342 21.2752 17.0811 19.5221 17.0811 17.3565C17.0811 15.2252 18.8342 13.4377 20.9998 13.4377Z" fill="#212B36"/>
<path d="M31.3467 28.7002C28.4936 26.2596 24.8155 24.9189 20.9999 24.9189C17.1843 24.9189 13.5061 26.2596 10.653 28.7002C10.378 28.9064 10.3436 29.2846 10.5843 29.5596C10.7905 29.8002 11.1686 29.8346 11.4436 29.6283C14.0905 27.3939 17.4936 26.1564 21.0343 26.1564C24.5749 26.1564 27.978 27.3939 30.6249 29.6283C30.728 29.7314 30.8655 29.7658 31.003 29.7658C31.1749 29.7658 31.3467 29.6971 31.4499 29.5596C31.6561 29.2846 31.6217 28.9064 31.3467 28.7002Z" fill="#212B36"/>
</svg>
