<svg width="42" height="42" viewBox="0 0 42 42" fill="none" xmlns="http://www.w3.org/2000/svg">
<circle cx="21" cy="21.0002" r="20.75" fill="#F4F7FF" stroke="#E7E7E7" stroke-width="0.5"/>
<g clip-path="url(#clip0_121_55479)">
<path d="M29.6968 16.7721H28.6655L26.328 10.8253C26.1905 10.5159 25.8468 10.3784 25.5374 10.4815C25.228 10.619 25.0905 10.9628 25.1937 11.2721L27.3593 16.8065H14.6062L16.7718 11.2721C16.9093 10.9628 16.7374 10.619 16.428 10.4815C16.1187 10.344 15.7749 10.5159 15.6374 10.8253L13.2999 16.7721H12.2687C11.753 16.7721 11.3062 17.1846 11.3062 17.7346V20.6565C11.3062 21.1721 11.7187 21.619 12.2687 21.619H12.303L13.1968 29.4565C13.3343 30.6596 14.3655 31.5878 15.603 31.5878H26.328C27.5655 31.5878 28.5968 30.6596 28.7343 29.4565L29.628 21.619H29.6624C30.178 21.619 30.6249 21.2065 30.6249 20.6565V17.7346C30.6593 17.219 30.2468 16.7721 29.6968 16.7721ZM12.5437 17.9753H29.4562V20.3815H12.5437V17.9753ZM27.5655 29.2846C27.4968 29.9034 26.9812 30.3503 26.3624 30.3503H15.6374C15.0187 30.3503 14.503 29.9034 14.4343 29.2846L13.5405 21.5846H28.4593L27.5655 29.2846Z" fill="#212B36"/>
<path d="M17.3907 27.4627C17.7345 27.4627 18.0095 27.1877 18.0095 26.844V24.1971C18.0095 23.8534 17.7345 23.5784 17.3907 23.5784C17.047 23.5784 16.772 23.8534 16.772 24.1971V26.844C16.772 27.1877 17.047 27.4627 17.3907 27.4627Z" fill="#212B36"/>
<path d="M24.6095 27.4627C24.9532 27.4627 25.2282 27.1877 25.2282 26.844V24.1971C25.2282 23.8534 24.9532 23.5784 24.6095 23.5784C24.2657 23.5784 23.9907 23.8534 23.9907 24.1971V26.844C24.0251 27.1877 24.3001 27.4627 24.6095 27.4627Z" fill="#212B36"/>
</g>
<defs>
<clipPath id="clip0_121_55479">
<rect width="22" height="22" fill="white" transform="translate(10 10.0002)"/>
</clipPath>
</defs>
</svg>
