<svg width="42" height="42" viewBox="0 0 42 42" fill="none" xmlns="http://www.w3.org/2000/svg">
<circle cx="21" cy="21.0002" r="20.75" fill="#F4F7FF" stroke="#E7E7E7" stroke-width="0.5"/>
<path d="M21 29.4618C20.6374 29.4618 20.2445 29.3381 19.9725 29.0596C19.2775 28.4409 18.5824 27.8531 17.978 27.3271C16.1951 25.7802 14.6539 24.4499 13.5659 23.1195C12.2967 21.5726 11.6923 20.0876 11.6923 18.4479C11.6923 16.8391 12.2363 15.3541 13.2335 14.2713C14.2308 13.1575 15.6209 12.5388 17.1319 12.5388C18.25 12.5388 19.3077 12.91 20.2143 13.6216C20.4863 13.8382 20.7583 14.0857 21 14.3641C21.2418 14.0857 21.5137 13.8382 21.7857 13.6216C22.6923 12.91 23.7198 12.5388 24.8681 12.5388C26.3791 12.5388 27.739 13.1575 28.7665 14.2713C29.7637 15.3541 30.3077 16.8391 30.3077 18.4479C30.3077 20.0876 29.7033 21.5726 28.4341 23.1195C27.3462 24.4499 25.805 25.7802 24.022 27.3271C23.4176 27.8531 22.7225 28.4409 22.0275 29.0596C21.7555 29.3071 21.3627 29.4618 21 29.4618ZM17.1319 13.5906C15.9231 13.5906 14.805 14.0857 14.0192 14.9829C13.2033 15.8801 12.7802 17.0866 12.7802 18.417C12.7802 19.7782 13.294 21.0467 14.3819 22.408C15.4094 23.6764 16.9203 24.9758 18.6731 26.4918C19.2775 27.0177 19.9725 27.6056 20.6676 28.2553C20.8489 28.4099 21.1511 28.4099 21.3324 28.2553C22.0577 27.6365 22.7225 27.0177 23.3269 26.4918C25.0797 24.9758 26.5907 23.6764 27.6181 22.408C28.7061 21.0467 29.2198 19.7782 29.2198 18.417C29.2198 17.0866 28.7665 15.8801 27.9808 14.9829C27.1648 14.0857 26.0769 13.5906 24.8681 13.5906C23.9616 13.5906 23.1456 13.8691 22.4506 14.4569C22.1484 14.6735 21.9066 14.9519 21.6346 15.2613C21.4835 15.4469 21.2418 15.5707 21 15.5707C20.7583 15.5707 20.5165 15.4469 20.3654 15.2613C20.1236 14.9519 19.8517 14.6735 19.5495 14.4569C18.8544 13.9 18.0385 13.5906 17.1319 13.5906Z" fill="#212B36"/>
<path fill-rule="evenodd" clip-rule="evenodd" d="M20.3724 13.423C20.5845 13.5919 20.7984 13.7804 21 13.9888C21.2016 13.7804 21.4155 13.5919 21.6276 13.423L21.629 13.4219C22.5782 12.6769 23.6604 12.2849 24.8681 12.2849C26.4528 12.2849 27.8795 12.9354 28.9531 14.0992C29.9981 15.2339 30.5615 16.7826 30.5615 18.4479C30.5615 20.1595 29.9275 21.6995 28.6306 23.2802C27.5473 24.6049 26.0258 25.9248 24.2916 27.4293L24.1886 27.5186C23.979 27.701 23.7598 27.8898 23.534 28.0841C23.1047 28.4538 22.6519 28.8436 22.1973 29.2483C21.8798 29.5367 21.427 29.7157 21 29.7157C20.5887 29.7157 20.1275 29.5771 19.7975 29.2436C19.3446 28.8406 18.8936 28.4523 18.466 28.0841C18.2402 27.8898 18.021 27.701 17.8115 27.5187C17.777 27.4888 17.7427 27.459 17.7084 27.4293C15.9743 25.9249 14.4528 24.605 13.3696 23.2804C12.0726 21.6996 11.4385 20.1596 11.4385 18.4479C11.4385 16.7832 12.0013 15.2352 13.0456 14.1006C14.0914 12.9334 15.55 12.2849 17.1319 12.2849C18.3086 12.2849 19.4212 12.6764 20.371 13.4219L20.3724 13.423ZM13.2335 14.2713C12.2363 15.3541 11.6923 16.8391 11.6923 18.4479C11.6923 20.0876 12.2967 21.5726 13.5659 23.1195C14.6353 24.4272 16.1426 25.7348 17.8869 27.248L17.978 27.3271C18.1856 27.5077 18.4039 27.6957 18.6292 27.8896C19.0599 28.2605 19.5162 28.6534 19.9725 29.0596C20.2445 29.3381 20.6374 29.4618 21 29.4618C21.3627 29.4618 21.7555 29.3071 22.0275 29.0596C22.4838 28.6534 22.9402 28.2605 23.3709 27.8896C23.5962 27.6957 23.8144 27.5077 24.022 27.3271L24.1131 27.248C25.8575 25.7348 27.3647 24.4272 28.4341 23.1195C29.7033 21.5726 30.3077 20.0876 30.3077 18.4479C30.3077 16.8391 29.7637 15.3541 28.7665 14.2713C27.739 13.1575 26.3791 12.5388 24.8681 12.5388C23.7198 12.5388 22.6923 12.91 21.7857 13.6216C21.5767 13.788 21.3677 13.9727 21.1725 14.1756C21.1136 14.2368 21.056 14.2996 21 14.3641C20.944 14.2996 20.8864 14.2368 20.8276 14.1756C20.6323 13.9727 20.4233 13.788 20.2143 13.6216C19.3077 12.91 18.25 12.5388 17.1319 12.5388C15.6209 12.5388 14.2308 13.1575 13.2335 14.2713ZM14.207 15.1536C13.4395 15.9976 13.0341 17.1404 13.0341 18.417C13.0341 19.7052 13.5173 20.9193 14.5796 22.2488C15.5732 23.4753 17.0317 24.7366 18.7534 26.2257L18.8391 26.2998C18.9652 26.4095 19.0962 26.5227 19.2301 26.6384C19.733 27.0732 20.2848 27.5502 20.8358 28.065C20.923 28.1358 21.0824 28.1349 21.1677 28.0621C21.5919 27.7003 21.9874 27.3454 22.3658 27.006C22.6381 26.7618 22.9015 26.5255 23.1603 26.3003L23.2466 26.2257C24.9684 24.7366 26.4268 23.4752 27.4204 22.2488C28.4828 20.9193 28.9659 19.7052 28.9659 18.417C28.9659 17.1454 28.5333 16 27.7914 15.1519C27.0223 14.3071 26.0025 13.8445 24.8681 13.8445C24.0176 13.8445 23.2608 14.1041 22.6145 14.6507L22.6067 14.6573L22.5984 14.6632C22.3279 14.8571 22.1078 15.1075 21.8361 15.4166L21.8282 15.4255C21.6324 15.6637 21.322 15.8245 21 15.8245C20.6763 15.8245 20.3642 15.6619 20.1685 15.4216L20.1653 15.4176C19.9344 15.1221 19.6793 14.8623 19.4016 14.6632L19.3961 14.6593L19.3907 14.655C18.7376 14.1317 17.9769 13.8445 17.1319 13.8445C15.9939 13.8445 14.9462 14.3097 14.2102 15.1501L14.207 15.1536ZM21.6346 15.2613L21.6556 15.2375C21.9191 14.9376 22.1561 14.6679 22.4506 14.4569C23.1456 13.8691 23.9616 13.5906 24.8681 13.5906C26.0769 13.5906 27.1648 14.0857 27.9808 14.9829C28.7665 15.8801 29.2198 17.0866 29.2198 18.417C29.2198 19.7782 28.7061 21.0467 27.6181 22.408C26.6102 23.6524 25.1368 24.9265 23.4264 26.4058L23.3269 26.4918C23.0755 26.7106 22.8136 26.9455 22.5412 27.1897C22.1589 27.5326 21.756 27.8939 21.3324 28.2553C21.1511 28.4099 20.8489 28.4099 20.6676 28.2553C20.1188 27.7423 19.5701 27.2679 19.0659 26.8321C18.9315 26.7159 18.8003 26.6025 18.6731 26.4918L18.5736 26.4058C16.8632 24.9265 15.3899 23.6524 14.3819 22.408C13.294 21.0467 12.7802 19.7782 12.7802 18.417C12.7802 17.0866 13.2033 15.8801 14.0192 14.9829C14.805 14.0857 15.9231 13.5906 17.1319 13.5906C18.0385 13.5906 18.8544 13.9 19.5495 14.4569C19.8517 14.6735 20.1236 14.9519 20.3654 15.2613C20.5165 15.4469 20.7583 15.5707 21 15.5707C21.2418 15.5707 21.4835 15.4469 21.6346 15.2613Z" fill="#212B36"/>
</svg>
