<svg width="10" height="6" viewBox="0 0 10 6" fill="none" xmlns="http://www.w3.org/2000/svg">
<path d="M4.96213 5.1552C4.79398 5.1552 4.62582 5.09691 4.4857 4.96577L0.730308 1.29367C0.63222 1.19167 0.63222 1.03138 0.716296 0.929373C0.814384 0.82737 0.968523 0.82737 1.06661 0.914801L4.822 4.5869C4.89207 4.65976 5.01818 4.65976 5.10226 4.5869L8.85764 0.914801C8.95573 0.812799 9.10987 0.82737 9.20796 0.929373C9.30605 1.03138 9.29204 1.19167 9.19395 1.29367L5.43856 4.95119C5.29843 5.08234 5.13028 5.1552 4.96213 5.1552Z" fill="#637381"/>
<path fill-rule="evenodd" clip-rule="evenodd" d="M4.24464 5.2123L0.481658 1.53278C0.25735 1.29952 0.259366 0.941625 0.450228 0.710066L0.458619 0.699887L0.467763 0.690377C0.698552 0.450379 1.06418 0.45074 1.29604 0.657409L1.30198 0.662706L4.96213 4.24167L8.6135 0.671283C8.87292 0.406711 9.25116 0.476849 9.45649 0.690377C9.70587 0.949704 9.64469 1.32239 9.44248 1.53266L9.43465 1.54081L5.67422 5.20299C5.48126 5.38357 5.23183 5.5 4.96213 5.5C4.7111 5.5 4.4574 5.41153 4.25009 5.21751L4.24464 5.2123ZM8.85764 0.914801L5.10226 4.5869C5.01818 4.65976 4.89207 4.65976 4.822 4.5869L1.06661 0.914801C0.968523 0.82737 0.814384 0.82737 0.716296 0.929373C0.63222 1.03138 0.63222 1.19167 0.730308 1.29367L4.4857 4.96577C4.62582 5.09691 4.79398 5.1552 4.96213 5.1552C5.13028 5.1552 5.29843 5.08234 5.43856 4.95119L9.19395 1.29367C9.29204 1.19167 9.30605 1.03138 9.20796 0.929373C9.10987 0.82737 8.95573 0.812799 8.85764 0.914801Z" fill="#637381"/>
</svg>
