<svg width="24" height="24" viewBox="0 0 24 24" fill="none" xmlns="http://www.w3.org/2000/svg">
<path d="M21.2402 13.7625C21.1683 12.9356 20.4852 12.3604 19.6584 12.3604H4.34301C3.51613 12.3604 2.869 12.9715 2.76114 13.7625L2.00616 21.3123C1.97021 21.7437 2.11402 22.2111 2.40163 22.5346C2.68924 22.8582 3.12066 23.038 3.58803 23.038H20.4493C20.8807 23.038 21.3121 22.8582 21.6357 22.5346C21.9233 22.2111 22.0671 21.7796 22.0312 21.3123L21.2402 13.7625ZM20.665 21.7077C20.629 21.7437 20.5571 21.8156 20.4133 21.8156H3.58803C3.48017 21.8156 3.37232 21.7437 3.33637 21.7077C3.30042 21.6718 3.22851 21.5999 3.26446 21.4561L4.01945 13.8703C4.01945 13.6906 4.16325 13.5827 4.34301 13.5827H19.6943C19.8741 13.5827 19.9819 13.6906 20.0179 13.8703L20.7729 21.4561C20.7369 21.5639 20.7009 21.6718 20.665 21.7077Z" fill="#3056D3"/>
<path d="M12.0007 15.165C10.5986 15.165 9.48413 16.2795 9.48413 17.6816C9.48413 19.0838 10.5986 20.1983 12.0007 20.1983C13.4028 20.1983 14.5173 19.0838 14.5173 17.6816C14.5173 16.2795 13.4028 15.165 12.0007 15.165ZM12.0007 18.94C11.3177 18.94 10.7424 18.3647 10.7424 17.6816C10.7424 16.9986 11.3177 16.4233 12.0007 16.4233C12.6838 16.4233 13.259 16.9986 13.259 17.6816C13.259 18.3647 12.6838 18.94 12.0007 18.94Z" fill="#3056D3"/>
<path d="M2.86896 7.54318C2.94086 9.12504 4.34297 9.77217 5.062 9.77217H7.57861C7.61456 9.77217 7.61456 9.77217 7.61456 9.77217C8.6931 9.70027 9.77165 8.98124 9.77165 7.54318V6.68034C10.958 6.68034 13.6904 6.68034 14.8768 6.68034V7.54318C14.8768 8.98124 15.9553 9.70027 17.0339 9.77217H17.0698H19.5505C20.2695 9.77217 21.6716 9.12504 21.7435 7.54318C21.7435 7.43532 21.7435 7.03985 21.7435 6.68034C21.7435 6.39273 21.7435 6.14107 21.7435 6.10511C21.7435 6.06916 21.7435 6.03321 21.7435 6.03321C21.6357 5.02657 21.2761 4.19968 20.665 3.55256L20.629 3.51661C19.7302 2.68972 18.6517 2.22235 17.8248 1.93474C15.416 1 12.3961 1 12.2523 1C10.1312 1.03595 8.76501 1.21571 6.71577 1.93474C5.92484 2.1864 4.84629 2.65377 3.9475 3.48065L3.91155 3.51661C3.30038 4.16373 2.94086 4.99062 2.83301 5.99726C2.83301 6.03321 2.83301 6.06916 2.83301 6.06916C2.83301 6.14107 2.83301 6.35678 2.83301 6.64439C2.86896 6.96795 2.86896 7.39937 2.86896 7.54318ZM4.81034 4.37944C5.52937 3.73232 6.42816 3.33685 7.18314 3.04924C9.05262 2.36616 10.275 2.22235 12.3242 2.1864C12.468 2.1864 15.2722 2.22235 17.4293 3.04924C18.1843 3.33685 19.0831 3.69636 19.8021 4.37944C20.1976 4.81086 20.4493 5.38608 20.5212 6.06916C20.5212 6.17702 20.5212 6.35678 20.5212 6.64439C20.5212 7.0039 20.5212 7.39937 20.5212 7.50722C20.4852 8.33411 19.6943 8.51387 19.5864 8.51387H17.1058C16.7462 8.47791 16.171 8.33411 16.171 7.54318V6.06916C16.171 5.78155 15.9913 5.56584 15.7396 5.45799C15.5239 5.38609 9.23238 5.38609 9.01667 5.45799C8.76501 5.52989 8.58525 5.78155 8.58525 6.06916V7.54318C8.58525 8.33411 8.01003 8.47791 7.65051 8.51387H5.16986C5.062 8.51387 4.27107 8.33411 4.23512 7.50722C4.23512 7.39937 4.23512 7.0039 4.23512 6.64439C4.23512 6.35678 4.23512 6.21297 4.23512 6.10511C4.16321 5.38609 4.41487 4.81086 4.81034 4.37944Z" fill="#3056D3"/>
</svg>
