<svg width="40" height="40" viewBox="0 0 40 40" fill="none" xmlns="http://www.w3.org/2000/svg">
<circle cx="20" cy="20" r="19.5" transform="rotate(180 20 20)" fill="white" stroke="#637381"/>
<g clip-path="url(#clip0_121_55619)">
<path fill-rule="evenodd" clip-rule="evenodd" d="M17.2426 14.1967L12.4697 18.9696C12.1768 19.2625 12.1768 19.7374 12.4697 20.0303L17.2426 24.8033C17.5355 25.0962 18.0104 25.0962 18.3033 24.8033C18.5962 24.5104 18.5962 24.0355 18.3033 23.7426L14.8107 20.25L26 20.25C26.4142 20.25 26.75 19.9142 26.75 19.5C26.75 19.0858 26.4142 18.75 26 18.75L14.8107 18.75L18.3033 15.2573C18.5962 14.9644 18.5962 14.4896 18.3033 14.1967C18.0104 13.9038 17.5355 13.9038 17.2426 14.1967Z" fill="#637381"/>
</g>
<defs>
<clipPath id="clip0_121_55619">
<rect width="15" height="13" fill="white" transform="translate(27 26) rotate(180)"/>
</clipPath>
</defs>
</svg>
