<svg width="40" height="40" viewBox="0 0 40 40" fill="none" xmlns="http://www.w3.org/2000/svg">
<circle cx="20" cy="20" r="20" fill="#3056D3"/>
<g clip-path="url(#clip0_121_55615)">
<path fill-rule="evenodd" clip-rule="evenodd" d="M22.7574 25.8033L27.5303 21.0304C27.8232 20.7375 27.8232 20.2626 27.5303 19.9697L22.7574 15.1967C22.4645 14.9038 21.9896 14.9038 21.6967 15.1967C21.4038 15.4896 21.4038 15.9645 21.6967 16.2574L25.1893 19.75H14C13.5858 19.75 13.25 20.0858 13.25 20.5C13.25 20.9142 13.5858 21.25 14 21.25H25.1893L21.6967 24.7427C21.4038 25.0356 21.4038 25.5104 21.6967 25.8033C21.9896 26.0962 22.4645 26.0962 22.7574 25.8033Z" fill="white"/>
</g>
<defs>
<clipPath id="clip0_121_55615">
<rect width="15" height="13" fill="white" transform="translate(13 14)"/>
</clipPath>
</defs>
</svg>
