<svg width="20" height="20" viewBox="0 0 20 20" fill="none" xmlns="http://www.w3.org/2000/svg">
<g clip-path="url(#clip0_121_55537)">
<path d="M4.84385 19.5938C4.59385 19.5938 4.34385 19.5313 4.1251 19.375C3.71885 19.0938 3.5001 18.5938 3.59385 18.0938L4.4376 12.7813L0.781354 9C0.437604 8.65625 0.312604 8.125 0.468854 7.65625C0.625104 7.1875 1.0001 6.875 1.46885 6.78125L6.5626 5.96875L8.84385 1.125C9.0626 0.6875 9.5001 0.40625 9.96885 0.40625C10.4689 0.40625 10.8751 0.6875 11.0939 1.125L13.4376 5.9375L18.5314 6.75C19.0001 6.8125 19.3751 7.15625 19.5314 7.625C19.6876 8.09375 19.5626 8.625 19.2189 8.96875L15.5314 12.75L16.4064 18.0938C16.5001 18.5938 16.2814 19.0938 15.8751 19.375C15.5001 19.6563 15.0001 19.6875 14.5626 19.4688L10.0001 16.9688L5.4376 19.4688C5.2501 19.5625 5.0626 19.5938 4.84385 19.5938ZM1.5626 8.25L5.34385 12.125C5.53135 12.3125 5.6251 12.5938 5.5626 12.875L4.6876 18.2813C4.65635 18.4063 4.7501 18.4688 4.78135 18.5C4.84385 18.5625 4.90635 18.5313 4.9376 18.5L9.6251 15.9375C9.8751 15.8125 10.1564 15.8125 10.4064 15.9375L15.0939 18.4688C15.1251 18.4688 15.1564 18.5 15.2501 18.4688C15.2814 18.4375 15.3439 18.375 15.3439 18.25L14.4689 12.8125C14.4376 12.5313 14.5001 12.2813 14.6876 12.0625L18.4376 8.1875C18.5314 8.09375 18.5001 8 18.5001 7.9375C18.5001 7.90625 18.4376 7.8125 18.3751 7.8125L13.1251 7C12.8439 6.96875 12.6251 6.78125 12.5001 6.53125L10.1564 1.59375C10.1251 1.5 10.0626 1.5 10.0001 1.5C9.96885 1.5 9.90635 1.53125 9.84385 1.59375L7.5001 6.5625C7.3751 6.8125 7.15635 7 6.8751 7.03125L1.65635 7.875C1.5626 7.875 1.53135 7.96875 1.53135 8C1.5001 8.03125 1.46885 8.15625 1.5626 8.25Z" fill="#FFA645"/>
</g>
<defs>
<clipPath id="clip0_121_55537">
<rect width="20" height="20" fill="white"/>
</clipPath>
</defs>
</svg>
